# xmcd
#
# Track frame offsets:
#	150
#	13708
#	27362
#	43583
#	60885
#	86281
#	107272
#	127915
#	146405
#	163545
#	187742
#	202207
#	220119
#
# Disc length: 3051 seconds
#
# Revision: 1
# Processed by: cddbd v1.5.2PL0 Copyright (c) Steve Scherf et al.
# Submitted via: audiograbber 1.83.01
#
DISCID=9d0be90d
DTITLE=Texas Slim - Burning Blues
DYEAR=1900
DGENRE=
TTITLE0=Welcome To The Game
TTITLE1=Driving Blues
TTITLE2=Three Bridges Blues
TTITLE3=You`re Hip
TTITLE4=Funky Love
TTITLE5=DeVille
TTITLE6=When It`s Cold Outside
TTITLE7=High Alert
TTITLE8=Coffee Shop Girl
TTITLE9=Cool With The Flow
TTITLE10=Country Home
TTITLE11=And It Is
TTITLE12=Jacqui`s House
EXTD=
EXTT0=
EXTT1=
EXTT2=
EXTT3=
EXTT4=
EXTT5=
EXTT6=
EXTT7=
EXTT8=
EXTT9=
EXTT10=
EXTT11=
EXTT12=
PLAYORDER=
